<svg width="100%" height="100%" viewBox="0 0 128 68" fill="none" xmlns="http://www.w3.org/2000/svg">
<path d="M30 1H94.9766L127 34L95 67H30V1Z" fill="#F7B117"/>
<path d="M0.5 0.5H95.1904L127.307 34L95.1904 67.5H0.5V0.5Z" stroke="black"/>
<rect x="1" y="1" width="29" height="66" fill="white"/>
<path d="M75.9219 53.3789C75.9219 54.0586 75.8867 54.6328 75.8164 55.1016C75.7695 55.5469 75.6875 55.9102 75.5703 56.1914C75.4531 56.4727 75.3008 56.6836 75.1133 56.8242C74.9492 56.9414 74.7617 57 74.5508 57H51.6992C50.9258 57 50.2695 56.7773 49.7305 56.332C49.2148 55.8633 48.957 55.1133 48.957 54.082V14.4258C48.957 13.3945 49.2148 12.6563 49.7305 12.2109C50.2695 11.7422 50.9258 11.5078 51.6992 11.5078H74.4102C74.6211 11.5078 74.8086 11.5664 74.9727 11.6836C75.1367 11.8008 75.2773 12.0117 75.3945 12.3164C75.5117 12.5977 75.5938 12.9727 75.6406 13.4414C75.7109 13.8867 75.7461 14.4609 75.7461 15.1641C75.7461 15.8203 75.7109 16.3828 75.6406 16.8516C75.5938 17.2969 75.5117 17.6602 75.3945 17.9414C75.2773 18.2227 75.1367 18.4336 74.9727 18.5742C74.8086 18.6914 74.6211 18.75 74.4102 18.75H58.168V29.8594H71.9141C72.125 29.8594 72.3125 29.9297 72.4766 30.0703C72.6641 30.1875 72.8164 30.3867 72.9336 30.668C73.0508 30.9258 73.1328 31.2891 73.1797 31.7578C73.25 32.2031 73.2852 32.7539 73.2852 33.4102C73.2852 34.0898 73.25 34.6523 73.1797 35.0977C73.1328 35.543 73.0508 35.9062 72.9336 36.1875C72.8164 36.4453 72.6641 36.6328 72.4766 36.75C72.3125 36.8672 72.125 36.9258 71.9141 36.9258H58.168V49.7578H74.5508C74.7617 49.7578 74.9492 49.8281 75.1133 49.9688C75.3008 50.0859 75.4531 50.2852 75.5703 50.5664C75.6875 50.8477 75.7695 51.2227 75.8164 51.6914C75.8867 52.1367 75.9219 52.6992 75.9219 53.3789Z" fill="white"/>
<path d="M75.8164 55.1016L75.3219 55.0274L75.3203 55.0383L75.3192 55.0492L75.8164 55.1016ZM75.1133 56.8242L75.404 57.2312L75.4133 57.2242L75.1133 56.8242ZM49.7305 56.332L49.3941 56.702L49.4029 56.71L49.412 56.7175L49.7305 56.332ZM49.7305 12.2109L50.0573 12.5894L50.0586 12.5882L49.7305 12.2109ZM75.3945 12.3164L74.9277 12.496L74.933 12.5087L75.3945 12.3164ZM75.6406 13.4414L75.1431 13.4912L75.1445 13.5053L75.1467 13.5194L75.6406 13.4414ZM75.6406 16.8516L75.1462 16.7774L75.1445 16.7883L75.1434 16.7992L75.6406 16.8516ZM74.9727 18.5742L75.2633 18.9811L75.2813 18.9682L75.2981 18.9538L74.9727 18.5742ZM58.168 18.75V18.25H57.668V18.75H58.168ZM58.168 29.8594H57.668V30.3594H58.168V29.8594ZM72.4766 30.0703L72.1512 30.4499L72.1797 30.4744L72.2116 30.4943L72.4766 30.0703ZM72.9336 30.668L72.4721 30.8603L72.4751 30.8676L72.4784 30.8749L72.9336 30.668ZM73.1797 31.7578L72.6822 31.8076L72.6836 31.8217L72.6858 31.8358L73.1797 31.7578ZM73.1797 35.0977L72.6858 35.0197L72.6838 35.0325L72.6824 35.0453L73.1797 35.0977ZM72.9336 36.1875L73.3888 36.3944L73.3921 36.3872L73.3951 36.3798L72.9336 36.1875ZM72.4766 36.75L72.2116 36.326L72.1985 36.3342L72.1859 36.3431L72.4766 36.75ZM58.168 36.9258V36.4258H57.668V36.9258H58.168ZM58.168 49.7578H57.668V50.2578H58.168V49.7578ZM75.1133 49.9688L74.7879 50.3484L74.8164 50.3728L74.8483 50.3927L75.1133 49.9688ZM75.8164 51.6914L75.3189 51.7412L75.3203 51.7553L75.3225 51.7694L75.8164 51.6914ZM75.4219 53.3789C75.4219 54.0434 75.3874 54.5912 75.3219 55.0274L76.3109 55.1757C76.3861 54.6744 76.4219 54.0737 76.4219 53.3789H75.4219ZM75.3192 55.0492C75.2752 55.4668 75.2008 55.7781 75.1088 55.9991L76.0319 56.3837C76.1742 56.0422 76.2639 55.627 76.3137 55.1539L75.3192 55.0492ZM75.1088 55.9991C75.0159 56.2221 74.911 56.3509 74.8133 56.4242L75.4133 57.2242C75.6906 57.0162 75.8904 56.7232 76.0319 56.3837L75.1088 55.9991ZM74.8227 56.4174C74.7475 56.4711 74.6626 56.5 74.5508 56.5V57.5C74.8608 57.5 75.151 57.4118 75.4039 57.2311L74.8227 56.4174ZM74.5508 56.5H51.6992V57.5H74.5508V56.5ZM51.6992 56.5C51.0288 56.5 50.4887 56.3099 50.0489 55.9466L49.412 56.7175C50.0504 57.2448 50.8227 57.5 51.6992 57.5V56.5ZM50.0668 55.9621C49.697 55.6259 49.457 55.0406 49.457 54.082H48.457C48.457 55.186 48.7327 56.1007 49.3941 56.702L50.0668 55.9621ZM49.457 54.082V14.4258H48.457V54.082H49.457ZM49.457 14.4258C49.457 13.4646 49.698 12.8996 50.0573 12.5893L49.4037 11.8325C48.7317 12.4129 48.457 13.3245 48.457 14.4258H49.457ZM50.0586 12.5882C50.4988 12.2054 51.0356 12.0078 51.6992 12.0078V11.0078C50.816 11.0078 50.0402 11.279 49.4024 11.8336L50.0586 12.5882ZM51.6992 12.0078H74.4102V11.0078H51.6992V12.0078ZM74.4102 12.0078C74.522 12.0078 74.6069 12.0368 74.682 12.0905L75.2633 11.2767C75.0103 11.0961 74.7202 11.0078 74.4102 11.0078V12.0078ZM74.682 12.0905C74.731 12.1255 74.826 12.2312 74.9279 12.4959L75.8612 12.1369C75.7286 11.7923 75.5424 11.4761 75.2633 11.2767L74.682 12.0905ZM74.933 12.5087C75.0239 12.7268 75.0988 13.0478 75.1431 13.4912L76.1381 13.3917C76.0887 12.8975 75.9996 12.4685 75.8561 12.1241L74.933 12.5087ZM75.1467 13.5194C75.2114 13.9288 75.2461 14.4743 75.2461 15.1641H76.2461C76.2461 14.4475 76.2105 13.8446 76.1345 13.3634L75.1467 13.5194ZM75.2461 15.1641C75.2461 15.8042 75.2117 16.3405 75.1462 16.7774L76.1351 16.9257C76.2102 16.4251 76.2461 15.8365 76.2461 15.1641H75.2461ZM75.1434 16.7992C75.0994 17.2168 75.0251 17.5281 74.933 17.7491L75.8561 18.1337C75.9984 17.7922 76.0881 17.377 76.1379 16.9039L75.1434 16.7992ZM74.933 17.7491C74.8343 17.9859 74.7326 18.1214 74.6473 18.1946L75.2981 18.9538C75.5408 18.7458 75.7204 18.4594 75.8561 18.1337L74.933 17.7491ZM74.682 18.1674C74.6069 18.2211 74.522 18.25 74.4102 18.25V19.25C74.7202 19.25 75.0103 19.1618 75.2633 18.9811L74.682 18.1674ZM74.4102 18.25H58.168V19.25H74.4102V18.25ZM57.668 18.75V29.8594H58.668V18.75H57.668ZM58.168 30.3594H71.9141V29.3594H58.168V30.3594ZM71.9141 30.3594C72.0025 30.3594 72.0753 30.3849 72.1512 30.4499L72.802 29.6907C72.5497 29.4745 72.2475 29.3594 71.9141 29.3594V30.3594ZM72.2116 30.4943C72.2834 30.5392 72.3801 30.6395 72.4721 30.8603L73.3951 30.4757C73.2528 30.134 73.0447 29.8358 72.7416 29.6463L72.2116 30.4943ZM72.4784 30.8749C72.5629 31.0609 72.6376 31.3621 72.6822 31.8076L73.6772 31.7081C73.628 31.216 73.5386 30.7907 73.3888 30.4611L72.4784 30.8749ZM72.6858 31.8358C72.7507 32.2466 72.7852 32.7694 72.7852 33.4102H73.7852C73.7852 32.7384 73.7493 32.1597 73.6736 31.6798L72.6858 31.8358ZM72.7852 33.4102C72.7852 34.0754 72.7506 34.6096 72.6858 35.0197L73.6736 35.1756C73.7494 34.6951 73.7852 34.1043 73.7852 33.4102H72.7852ZM72.6824 35.0453C72.6385 35.4628 72.5641 35.7742 72.4721 35.9952L73.3951 36.3798C73.5374 36.0383 73.6271 35.6231 73.6769 35.15L72.6824 35.0453ZM72.4784 35.9806C72.3906 36.1739 72.2952 36.2738 72.2116 36.326L72.7416 37.174C73.033 36.9919 73.2423 36.7167 73.3888 36.3944L72.4784 35.9806ZM72.1859 36.3431C72.1108 36.3968 72.0259 36.4258 71.9141 36.4258V37.4258C72.2241 37.4258 72.5142 37.3375 72.7672 37.1569L72.1859 36.3431ZM71.9141 36.4258H58.168V37.4258H71.9141V36.4258ZM57.668 36.9258V49.7578H58.668V36.9258H57.668ZM58.168 50.2578H74.5508V49.2578H58.168V50.2578ZM74.5508 50.2578C74.6392 50.2578 74.712 50.2834 74.7879 50.3484L75.4387 49.5891C75.1864 49.3729 74.8842 49.2578 74.5508 49.2578V50.2578ZM74.8483 50.3927C74.9202 50.4377 75.0168 50.5379 75.1088 50.7587L76.0319 50.3741C75.8895 50.0324 75.6814 49.7342 75.3783 49.5448L74.8483 50.3927ZM75.1088 50.7587C75.1996 50.9768 75.2745 51.2978 75.3189 51.7412L76.3139 51.6417C76.2645 51.1475 76.1754 50.7185 76.0319 50.3741L75.1088 50.7587ZM75.3225 51.7694C75.3873 52.1795 75.4219 52.7136 75.4219 53.3789H76.4219C76.4219 52.6848 76.3862 52.094 76.3103 51.6134L75.3225 51.7694Z" fill="black"/>
<path d="M20.9014 18.9473C20.9873 19.2051 21.041 19.4092 21.0625 19.5596C21.084 19.71 21.0553 19.8245 20.9766 19.9033C20.8978 19.9749 20.7581 20.0179 20.5576 20.0322C20.3571 20.0537 20.0814 20.0645 19.7305 20.0645C19.3652 20.0645 19.0788 20.0573 18.8711 20.043C18.6706 20.0358 18.5166 20.0179 18.4092 19.9893C18.3018 19.9535 18.2266 19.9069 18.1836 19.8496C18.1406 19.7923 18.1048 19.7171 18.0762 19.624L17.1416 16.8311H11.9209L11.04 19.5488C11.0114 19.6491 10.972 19.735 10.9219 19.8066C10.8789 19.8711 10.8037 19.9248 10.6963 19.9678C10.596 20.0036 10.4492 20.0286 10.2559 20.043C10.0697 20.0573 9.82259 20.0645 9.51465 20.0645C9.18522 20.0645 8.92741 20.0537 8.74121 20.0322C8.55501 20.0107 8.42611 19.9606 8.35449 19.8818C8.28288 19.7959 8.25781 19.6777 8.2793 19.5273C8.30078 19.377 8.35449 19.1764 8.44043 18.9258L12.7266 6.59375C12.7695 6.47201 12.8197 6.37533 12.877 6.30371C12.9342 6.22493 13.0238 6.16764 13.1455 6.13184C13.2744 6.08887 13.4499 6.0638 13.6719 6.05664C13.8939 6.04232 14.1875 6.03516 14.5527 6.03516C14.9753 6.03516 15.3118 6.04232 15.5625 6.05664C15.8132 6.0638 16.0065 6.08887 16.1426 6.13184C16.2858 6.16764 16.3861 6.22493 16.4434 6.30371C16.5078 6.38249 16.5615 6.48991 16.6045 6.62598L20.9014 18.9473ZM14.5205 8.75293H14.5098L12.5439 14.6611H16.4863L14.5205 8.75293Z" fill="black"/>
<path d="M20.665 50.2588C20.665 50.4665 20.6543 50.6455 20.6328 50.7959C20.6185 50.9463 20.5934 51.068 20.5576 51.1611C20.529 51.2471 20.4896 51.3079 20.4395 51.3438C20.3965 51.3796 20.3428 51.3975 20.2783 51.3975C20.1852 51.3975 20.0348 51.333 19.8271 51.2041C19.6195 51.0752 19.3438 50.9355 19 50.7852C18.6562 50.6348 18.2445 50.4951 17.7646 50.3662C17.292 50.2373 16.7406 50.1729 16.1104 50.1729C15.4372 50.1729 14.8285 50.291 14.2842 50.5273C13.7399 50.7565 13.2744 51.0859 12.8877 51.5156C12.501 51.9382 12.2038 52.4502 11.9961 53.0518C11.7884 53.6462 11.6846 54.305 11.6846 55.0283C11.6846 55.8232 11.7884 56.5251 11.9961 57.1338C12.2109 57.7354 12.5081 58.2402 12.8877 58.6484C13.2673 59.0566 13.722 59.3646 14.252 59.5723C14.7891 59.7799 15.3799 59.8838 16.0244 59.8838C16.3395 59.8838 16.651 59.848 16.959 59.7764C17.2669 59.7048 17.5534 59.5973 17.8184 59.4541V56.2314H15.1865C15.0576 56.2314 14.9574 56.1527 14.8857 55.9951C14.8141 55.8304 14.7783 55.5547 14.7783 55.168C14.7783 54.9674 14.7855 54.7992 14.7998 54.6631C14.8213 54.527 14.8499 54.4196 14.8857 54.3408C14.9215 54.2549 14.9645 54.194 15.0146 54.1582C15.0648 54.1152 15.1221 54.0938 15.1865 54.0938H19.8809C19.9954 54.0938 20.0957 54.1152 20.1816 54.1582C20.2747 54.194 20.3535 54.2513 20.418 54.3301C20.4896 54.4089 20.5433 54.5055 20.5791 54.6201C20.6149 54.7275 20.6328 54.8529 20.6328 54.9961V60.5283C20.6328 60.7432 20.5934 60.9329 20.5146 61.0977C20.443 61.2552 20.2891 61.3805 20.0527 61.4736C19.8236 61.5667 19.5371 61.6634 19.1934 61.7637C18.8496 61.8639 18.4915 61.9499 18.1191 62.0215C17.7539 62.0931 17.3815 62.1468 17.002 62.1826C16.6296 62.2184 16.2536 62.2363 15.874 62.2363C14.764 62.2363 13.7686 62.0788 12.8877 61.7637C12.014 61.4414 11.2728 60.9795 10.6641 60.3779C10.0553 59.7692 9.58984 59.0316 9.26758 58.165C8.94531 57.2913 8.78418 56.3031 8.78418 55.2002C8.78418 54.0615 8.95605 53.041 9.2998 52.1387C9.64355 51.2292 10.1305 50.4593 10.7607 49.8291C11.391 49.1917 12.1501 48.7048 13.0381 48.3682C13.9333 48.0316 14.9287 47.8633 16.0244 47.8633C16.626 47.8633 17.1738 47.9062 17.668 47.9922C18.1621 48.071 18.5918 48.1712 18.957 48.293C19.3294 48.4076 19.6374 48.5329 19.8809 48.6689C20.1243 48.805 20.2926 48.9232 20.3857 49.0234C20.486 49.1237 20.5576 49.2669 20.6006 49.4531C20.6436 49.6322 20.665 49.9007 20.665 50.2588Z" fill="black"/>
<path d="M21.4229 32.0809L15.5595 26.2573C15.3922 26.0912 15.1691 26 14.9264 26C14.6885 26 14.4655 26.0912 14.2983 26.2573L8.43472 32.0809C8.08835 32.425 8.08835 32.9851 8.43472 33.329L8.96709 33.858C9.13433 34.024 9.35744 34.1153 9.59549 34.1153C9.8334 34.1153 10.0642 34.024 10.2313 33.858L13.6596 30.4604V41.2546C13.6596 41.7411 14.0432 42.138 14.533 42.138H15.286C15.7758 42.138 16.1983 41.7411 16.1983 41.2546V30.4221L19.646 33.858C19.8131 34.024 20.0303 34.1153 20.2683 34.1153C20.5064 34.1153 20.7262 34.024 20.8936 33.858L21.4243 33.329C21.7708 32.985 21.7695 32.425 21.4229 32.0809Z" fill="black"/>
</svg>
